<svg width="22" height="22" viewBox="0 0 22 22" fill="none" xmlns="http://www.w3.org/2000/svg">
<g clip-path="url(#clip0_8_14)">
<path d="M11.55 4.14192C11.4785 4.14267 11.4076 4.12987 11.3413 4.10426C11.275 4.07865 11.2146 4.04074 11.1635 3.99268C11.1124 3.94462 11.0717 3.88735 11.0437 3.82415C11.0156 3.76096 11.0008 3.69307 11 3.62436C11 1.62179 12.7248 -1.7146e-06 14.8485 -1.7146e-06C14.92 -0.000933193 14.991 0.0117357 15.0574 0.0372765C15.1238 0.0628174 15.1843 0.100726 15.2354 0.148824C15.2866 0.196922 15.3273 0.25426 15.3553 0.317541C15.3833 0.380822 15.398 0.448799 15.3985 0.517562C15.3985 2.52013 13.6752 4.14192 11.55 4.14192Z" fill="black"/>
<path d="M11.55 4.14192C11.4785 4.14267 11.4076 4.12987 11.3413 4.10426C11.275 4.07865 11.2146 4.04074 11.1635 3.99268C11.1124 3.94461 11.0717 3.88735 11.0437 3.82415C11.0156 3.76096 11.0008 3.69307 11 3.62436C11 1.62179 12.7248 -1.71461e-06 14.8485 -1.71461e-06C14.92 -0.000933193 14.991 0.0117357 15.0574 0.0372765C15.1238 0.0628174 15.1843 0.100726 15.2354 0.148824C15.2866 0.196922 15.3273 0.25426 15.3553 0.317541C15.3833 0.380822 15.398 0.448799 15.3985 0.517562C15.3985 2.52013 13.6752 4.14192 11.55 4.14192ZM19.58 15.0446C19.7927 15.1941 19.8616 15.4677 19.7413 15.6905C17.8053 19.3374 16.2609 21.1538 14.85 21.1538C14.1929 21.1538 13.5476 20.9536 12.9184 20.5644C12.4668 20.2856 11.9438 20.1322 11.4073 20.1213C10.8707 20.1103 10.3415 20.2422 9.878 20.5023C9.11533 20.9324 8.38933 21.1538 7.7 21.1538C5.62466 21.1538 2.2 15.1363 2.2 11.8349C2.2 8.30923 4.16386 5.62128 7.15 5.62128C8.55506 5.62128 9.768 5.8159 10.7873 6.21218C11.2185 6.37859 11.7069 6.36731 12.1279 6.17692C12.9551 5.80179 14.0463 5.62128 15.3985 5.62128C17.0515 5.62128 18.4932 6.39692 19.69 7.89884C19.7333 7.95301 19.7648 8.01497 19.7828 8.08107C19.8007 8.14717 19.8047 8.21605 19.7944 8.28364C19.7841 8.35124 19.7599 8.41616 19.7231 8.47458C19.6862 8.53299 19.6376 8.58371 19.58 8.62372C18.2439 9.56859 17.6 10.6277 17.6 11.8349C17.6 13.0406 18.2439 14.1012 19.58 15.0446Z" fill="black"/>
<path d="M19.58 15.0446C19.7927 15.1941 19.8616 15.4677 19.7413 15.6905C17.8053 19.3374 16.2609 21.1538 14.85 21.1538C14.1929 21.1538 13.5476 20.9536 12.9184 20.5644C12.4668 20.2856 11.9438 20.1322 11.4073 20.1213C10.8707 20.1103 10.3415 20.2422 9.878 20.5023C9.11533 20.9324 8.38933 21.1538 7.7 21.1538C5.62466 21.1538 2.2 15.1363 2.2 11.8349C2.2 8.30923 4.16386 5.62128 7.15 5.62128C8.55506 5.62128 9.768 5.8159 10.7873 6.21218C11.2185 6.37859 11.7069 6.36731 12.1279 6.17692C12.9551 5.80179 14.0463 5.62128 15.3985 5.62128C17.0515 5.62128 18.4932 6.39692 19.69 7.89884C19.7333 7.95301 19.7648 8.01497 19.7828 8.08107C19.8007 8.14717 19.8047 8.21605 19.7944 8.28364C19.7841 8.35124 19.7599 8.41617 19.7231 8.47458C19.6862 8.53299 19.6376 8.58371 19.58 8.62372C18.2439 9.56859 17.6 10.6277 17.6 11.8349C17.6 13.0406 18.2439 14.1012 19.58 15.0446Z" fill="black"/>
</g>
<defs>
<clipPath id="clip0_8_14">
<rect width="22" height="21.1538" rx="10.5769" fill="white"/>
</clipPath>
</defs>
</svg>
