<svg width="45" height="45" viewBox="0 0 45 45" fill="none" xmlns="http://www.w3.org/2000/svg">
<path fill-rule="evenodd" clip-rule="evenodd" d="M24.75 10.125H11.25C9.75816 10.125 8.32742 10.7176 7.27252 11.7725C6.21763 12.8274 5.625 14.2582 5.625 15.75V27C5.625 28.4918 6.21763 29.9226 7.27252 30.9775C8.32742 32.0324 9.75816 32.625 11.25 32.625H24.75C26.2418 32.625 27.6726 32.0324 28.7275 30.9775C29.7824 29.9226 30.375 28.4918 30.375 27V15.75C30.375 14.2582 29.7824 12.8274 28.7275 11.7725C27.6726 10.7176 26.2418 10.125 24.75 10.125ZM7.875 15.75C7.875 14.8549 8.23058 13.9964 8.86351 13.3635C9.49645 12.7306 10.3549 12.375 11.25 12.375H24.75C25.6451 12.375 26.5035 12.7306 27.1365 13.3635C27.7694 13.9964 28.125 14.8549 28.125 15.75V27C28.125 27.8951 27.7694 28.7536 27.1365 29.3865C26.5035 30.0194 25.6451 30.375 24.75 30.375H11.25C10.3549 30.375 9.49645 30.0194 8.86351 29.3865C8.23058 28.7536 7.875 27.8951 7.875 27V15.75Z" fill="#9457EB"/>
<path fill-rule="evenodd" clip-rule="evenodd" d="M35.3857 12.555L28.6897 16.911C28.534 17.0119 28.4057 17.1498 28.3162 17.3123C28.2267 17.4748 28.1788 17.657 28.1767 17.8425L28.116 23.7195C28.1137 23.909 28.1593 24.096 28.2486 24.2632C28.3379 24.4304 28.4679 24.5723 28.6267 24.6758L35.3857 29.0678C35.5555 29.1784 35.752 29.2411 35.9545 29.2493C36.157 29.2575 36.3579 29.2109 36.5361 29.1143C36.7143 29.0177 36.863 28.8748 36.9667 28.7007C37.0703 28.5266 37.125 28.3277 37.125 28.125V13.5C37.1254 13.2972 37.071 13.098 36.9675 12.9235C36.8641 12.7491 36.7153 12.6058 36.5371 12.509C36.3589 12.4122 36.1578 12.3653 35.9551 12.3734C35.7524 12.3815 35.5557 12.4442 35.3857 12.555ZM34.875 26.055L30.3727 23.1278L30.42 18.4702L34.875 15.5745V26.055Z" fill="#9457EB"/>
</svg>
