<svg width="24" height="24" viewBox="0 0 24 24" fill="none" xmlns="http://www.w3.org/2000/svg">
<path d="M4 19C3.45 19 2.979 18.804 2.587 18.412C2.195 18.02 1.99934 17.5493 2 17V5C2 4.45 2.196 3.979 2.588 3.587C2.98 3.195 3.45067 2.99934 4 3L6 7H9L7 3H9L11 7H14L12 3H14L16 7H19L17 3H20C20.55 3 21.021 3.196 21.413 3.588C21.805 3.98 22.0007 4.45067 22 5V9H4V17H12V19H4ZM14 20V17.875L19.15 12.7L21.3 14.8L16.125 20H14ZM22.025 14.1L19.9 11.975L20.6 11.275C20.8 11.075 21.0417 10.975 21.325 10.975C21.6083 10.975 21.8417 11.075 22.025 11.275L22.725 12C22.9083 12.2 23 12.4377 23 12.713C23 12.9883 22.9083 13.2173 22.725 13.4L22.025 14.1Z" fill="white"/>
</svg>
