<svg width="30" height="30" viewBox="0 0 30 30" fill="none" xmlns="http://www.w3.org/2000/svg">
<path fill-rule="evenodd" clip-rule="evenodd" d="M22.0875 13.4231C21.8238 13.1598 21.4664 13.0119 21.0938 13.0119C20.7211 13.0119 20.3637 13.1598 20.1 13.4231L16.4062 17.1169V3.28125C16.4062 2.90829 16.2581 2.5506 15.9944 2.28688C15.7306 2.02316 15.373 1.875 15 1.875C14.627 1.875 14.2694 2.02316 14.0056 2.28688C13.7419 2.5506 13.5938 2.90829 13.5938 3.28125V17.1169L9.9 13.4231C9.63342 13.1747 9.28083 13.0395 8.91652 13.0459C8.55221 13.0524 8.20461 13.1999 7.94696 13.4576C7.68931 13.7152 7.54172 14.0628 7.5353 14.4271C7.52887 14.7915 7.6641 15.144 7.9125 15.4106L14.0062 21.5044L15 22.5L15.9937 21.5063L22.0875 15.4125C22.2182 15.2819 22.3218 15.1268 22.3926 14.9562C22.4633 14.7855 22.4997 14.6026 22.4997 14.4178C22.4997 14.2331 22.4633 14.0501 22.3926 13.8795C22.3218 13.7088 22.2182 13.5537 22.0875 13.4231ZM4.6875 18.2812C4.6875 18.0966 4.65113 17.9137 4.58046 17.7431C4.50978 17.5725 4.4062 17.4175 4.27562 17.2869C4.14504 17.1563 3.99001 17.0527 3.8194 16.982C3.64878 16.9114 3.46592 16.875 3.28125 16.875C3.09658 16.875 2.91372 16.9114 2.7431 16.982C2.57249 17.0527 2.41746 17.1563 2.28688 17.2869C2.1563 17.4175 2.05272 17.5725 1.98204 17.7431C1.91137 17.9137 1.875 18.0966 1.875 18.2812V24.375C1.875 25.3696 2.27009 26.3234 2.97335 27.0266C3.67661 27.7299 4.63044 28.125 5.625 28.125H24.375C25.3696 28.125 26.3234 27.7299 27.0266 27.0266C27.7299 26.3234 28.125 25.3696 28.125 24.375V18.2812C28.125 17.9083 27.9768 17.5506 27.7131 17.2869C27.4494 17.0232 27.0917 16.875 26.7188 16.875C26.3458 16.875 25.9881 17.0232 25.7244 17.2869C25.4607 17.5506 25.3125 17.9083 25.3125 18.2812V24.375C25.3125 24.6236 25.2137 24.8621 25.0379 25.0379C24.8621 25.2137 24.6236 25.3125 24.375 25.3125H5.625C5.37636 25.3125 5.1379 25.2137 4.96209 25.0379C4.78627 24.8621 4.6875 24.6236 4.6875 24.375V18.2812Z" fill="#9457EB"/>
</svg>
