<svg width="45" height="45" viewBox="0 0 45 45" fill="none" xmlns="http://www.w3.org/2000/svg">
<circle cx="22.5" cy="22.5" r="22.5" fill="#F1C93B"/>
<path d="M32.65 12.24C32.541 12.1465 32.4131 12.0775 32.2751 12.0378C32.137 11.9981 31.992 11.9886 31.85 12.01L18.85 14.01C18.6133 14.0459 18.3973 14.1656 18.2413 14.3473C18.0853 14.5289 17.9997 14.7606 18 15V25.35C17.5328 25.1218 17.02 25.0021 16.5 25C15.8078 25 15.1311 25.2053 14.5555 25.5899C13.9799 25.9744 13.5313 26.5211 13.2664 27.1606C13.0015 27.8002 12.9322 28.5039 13.0673 29.1828C13.2023 29.8618 13.5356 30.4854 14.0251 30.9749C14.5146 31.4644 15.1383 31.7977 15.8172 31.9328C16.4961 32.0678 17.1999 31.9985 17.8394 31.7336C18.4789 31.4687 19.0256 31.0201 19.4101 30.4445C19.7947 29.8689 20 29.1922 20 28.5V20.86L31 19.17V23.35C30.5328 23.1218 30.02 23.0021 29.5 23C28.8078 23 28.1311 23.2053 27.5555 23.5899C26.9799 23.9744 26.5313 24.5211 26.2664 25.1606C26.0015 25.8002 25.9322 26.5039 26.0673 27.1828C26.2023 27.8618 26.5356 28.4854 27.0251 28.9749C27.5146 29.4644 28.1383 29.7977 28.8172 29.9328C29.4961 30.0678 30.1999 29.9985 30.8394 29.7336C31.4789 29.4687 32.0256 29.0201 32.4101 28.4445C32.7947 27.8689 33 27.1922 33 26.5V13C33 12.8556 32.9687 12.7128 32.9083 12.5816C32.8479 12.4504 32.7598 12.3339 32.65 12.24ZM16.5 30C16.2033 30 15.9133 29.912 15.6666 29.7472C15.42 29.5824 15.2277 29.3481 15.1142 29.074C15.0007 28.7999 14.9709 28.4983 15.0288 28.2074C15.0867 27.9164 15.2296 27.6491 15.4393 27.4393C15.6491 27.2296 15.9164 27.0867 16.2074 27.0288C16.4983 26.9709 16.7999 27.0007 17.074 27.1142C17.3481 27.2277 17.5824 27.42 17.7472 27.6666C17.912 27.9133 18 28.2033 18 28.5C18 28.8978 17.842 29.2794 17.5607 29.5607C17.2794 29.842 16.8978 30 16.5 30ZM29.5 28C29.2033 28 28.9133 27.912 28.6666 27.7472C28.42 27.5824 28.2277 27.3481 28.1142 27.074C28.0007 26.7999 27.9709 26.4983 28.0288 26.2074C28.0867 25.9164 28.2296 25.6491 28.4393 25.4393C28.6491 25.2296 28.9164 25.0867 29.2074 25.0288C29.4983 24.9709 29.7999 25.0007 30.074 25.1142C30.3481 25.2277 30.5824 25.42 30.7472 25.6666C30.912 25.9133 31 26.2033 31 26.5C31 26.8978 30.842 27.2794 30.5607 27.5607C30.2794 27.842 29.8978 28 29.5 28ZM31 17.14L20 18.83V15.83L31 14.17V17.14Z" fill="black"/>
</svg>
