<svg width="40" height="40" viewBox="0 0 40 40" fill="none" xmlns="http://www.w3.org/2000/svg">
<path d="M33 3.34667V3.33334H12.9167C11.4801 3.33334 10.1023 3.90402 9.08653 4.91984C8.0707 5.93566 7.50002 7.31341 7.50002 8.75V25.8333H4.58335C3.80981 25.8333 3.06794 26.1406 2.52096 26.6876C1.97398 27.2346 1.66669 27.9765 1.66669 28.75V31.7917C1.66669 34.6083 3.96169 36.6667 6.66669 36.6667H25.0334V36.6533C25.1617 36.6617 25.2917 36.6667 25.4234 36.6667C28.3567 36.6667 30.85 34.4083 30.885 31.4783V14.1667H36.3267C37.4334 14.1667 38.3334 13.2667 38.3334 12.1583V8.30834C38.3335 7.62478 38.1928 6.94853 37.92 6.32179C37.6471 5.69505 37.248 5.13129 36.7475 4.66569C36.2471 4.2001 35.656 3.84267 35.0112 3.61573C34.3664 3.38878 33.6818 3.29719 33 3.34667ZM12.9167 5.83334H29.0434C28.6115 6.58597 28.385 7.43892 28.3867 8.30667V31.4167C28.3867 32.875 27.12 34.1667 25.4234 34.1667C23.725 34.1667 22.4617 32.875 22.4617 31.4167V27.9167C22.4617 26.7667 21.5284 25.8333 20.3784 25.8333H10V8.75C10 7.14 11.3067 5.83334 12.9167 5.83334ZM4.58335 28.3333H19.9617V31.4167C19.9617 32.4333 20.2584 33.3733 20.7667 34.1667H6.66669C5.23002 34.1667 4.16669 33.1167 4.16669 31.7917V28.75C4.16669 28.6395 4.21059 28.5335 4.28873 28.4554C4.36687 28.3772 4.47285 28.3333 4.58335 28.3333ZM35.8334 8.30667V11.6667H30.8867V8.30667C30.8867 7.6507 31.1473 7.0216 31.6111 6.55776C32.075 6.09392 32.7041 5.83334 33.36 5.83334C34.016 5.83334 34.6451 6.09392 35.1089 6.55776C35.5728 7.0216 35.8334 7.6507 35.8334 8.30667Z" fill="#9457EB"/>
</svg>
