<svg width="32" height="16" viewBox="0 0 32 16" fill="none" xmlns="http://www.w3.org/2000/svg">
<path d="M5.8537 9.10572L3.25208 6.50409L5.8537 3.90247" stroke="white" stroke-width="2" stroke-linecap="round" stroke-linejoin="round"/>
<path d="M3.25208 6.50415H10.4065C11.0965 6.50415 11.7583 6.77825 12.2462 7.26615C12.7341 7.75405 13.0082 8.41578 13.0082 9.10578C13.0082 9.79577 12.7341 10.4575 12.2462 10.9454C11.7583 11.4333 11.0965 11.7074 10.4065 11.7074H9.75614" stroke="white" stroke-width="2" stroke-linecap="round" stroke-linejoin="round"/>
<path d="M26.1463 9.10572L28.7479 6.50409L26.1463 3.90247" stroke="white" stroke-width="2" stroke-linecap="round" stroke-linejoin="round"/>
<path d="M28.7479 6.50415H21.5935C20.9035 6.50415 20.2417 6.77825 19.7538 7.26615C19.2659 7.75405 18.9918 8.41578 18.9918 9.10578C18.9918 9.79577 19.2659 10.4575 19.7538 10.9454C20.2417 11.4333 20.9035 11.7074 21.5935 11.7074H22.2439" stroke="white" stroke-width="2" stroke-linecap="round" stroke-linejoin="round"/>
</svg>
